<svg width="12" height="16" viewBox="0 0 12 16" fill="none" xmlns="http://www.w3.org/2000/svg">
<path d="M10.3944 6.07272C10.3512 6.01866 10.2989 6.02928 10.2715 6.04031C10.2485 6.04963 10.1959 6.07938 10.2032 6.15394C10.2119 6.24347 10.2168 6.33475 10.2178 6.42528C10.2217 6.80084 10.071 7.16878 9.80445 7.43475C9.53957 7.699 9.1912 7.84138 8.82026 7.83725C8.31357 7.83078 7.89332 7.5665 7.60492 7.07297C7.36645 6.66488 7.47126 6.13853 7.58223 5.58125C7.64717 5.25506 7.71432 4.91775 7.71432 4.59672C7.71432 2.09706 6.03388 0.654938 5.0322 0.0177813C5.01148 0.004625 4.99176 0 4.97429 0C4.94588 0 4.92338 0.01225 4.91229 0.01975C4.89079 0.0343125 4.85638 0.0675 4.86745 0.12625C5.25032 2.15944 4.10832 3.38228 2.89926 4.67691C1.65301 6.01138 0.240479 7.52391 0.240479 10.2518C0.240479 13.4214 2.81913 16.0001 5.98876 16.0001C8.59851 16.0001 10.8995 14.1806 11.5842 11.5754C12.0512 9.79903 11.5619 7.53628 10.3944 6.07272ZM6.13217 14.7731C5.33848 14.8093 4.58367 14.5246 4.00713 13.9734C3.43679 13.428 3.10967 12.6669 3.10967 11.8852C3.10967 10.4183 3.67054 9.34144 5.1791 7.91181C5.20379 7.88841 5.22907 7.881 5.2511 7.881C5.27107 7.881 5.28838 7.88709 5.30029 7.89281C5.32538 7.90491 5.36663 7.93484 5.36107 7.99959C5.30713 8.62725 5.30807 9.14822 5.36382 9.54809C5.50632 10.5695 6.25404 11.2558 7.22451 11.2558C7.70032 11.2558 8.15354 11.0767 8.5007 10.7516C8.5141 10.7387 8.53045 10.7293 8.54832 10.7242C8.5662 10.7191 8.58505 10.7184 8.60323 10.7223C8.62607 10.7272 8.65666 10.7412 8.6727 10.7799C8.81663 11.1274 8.8902 11.4963 8.89132 11.8763C8.89592 13.4052 7.65817 14.7047 6.13217 14.7731Z" fill="white"/>
</svg>
